<?xml version="1.0" standalone="no"?>
<svg xmlns:xlink="http://www.w3.org/1999/xlink" id="wave" style="transform:rotate(180deg); transition: 0.3s" viewBox="0 0 1440 490" version="1.1" xmlns="http://www.w3.org/2000/svg"><defs><linearGradient id="sw-gradient-0" x1="0" x2="0" y1="1" y2="0"><stop stop-color="rgba(68.61, 96.785, 255, 1)" offset="0%"/><stop stop-color="rgba(40.391, 51.876, 116.031, 1)" offset="100%"/></linearGradient></defs><path style="transform:translate(0, 0px); opacity:1" fill="url(#sw-gradient-0)" d="M0,49L80,57.2C160,65,320,82,480,138.8C640,196,800,294,960,326.7C1120,359,1280,327,1440,294C1600,261,1760,229,1920,196C2080,163,2240,131,2400,130.7C2560,131,2720,163,2880,147C3040,131,3200,65,3360,73.5C3520,82,3680,163,3840,196C4000,229,4160,212,4320,187.8C4480,163,4640,131,4800,147C4960,163,5120,229,5280,220.5C5440,212,5600,131,5760,89.8C5920,49,6080,49,6240,89.8C6400,131,6560,212,6720,228.7C6880,245,7040,196,7200,187.8C7360,180,7520,212,7680,245C7840,278,8000,310,8160,302.2C8320,294,8480,245,8640,204.2C8800,163,8960,131,9120,130.7C9280,131,9440,163,9600,155.2C9760,147,9920,98,10080,106.2C10240,114,10400,180,10560,204.2C10720,229,10880,212,11040,196C11200,180,11360,163,11440,155.2L11520,147L11520,490L11440,490C11360,490,11200,490,11040,490C10880,490,10720,490,10560,490C10400,490,10240,490,10080,490C9920,490,9760,490,9600,490C9440,490,9280,490,9120,490C8960,490,8800,490,8640,490C8480,490,8320,490,8160,490C8000,490,7840,490,7680,490C7520,490,7360,490,7200,490C7040,490,6880,490,6720,490C6560,490,6400,490,6240,490C6080,490,5920,490,5760,490C5600,490,5440,490,5280,490C5120,490,4960,490,4800,490C4640,490,4480,490,4320,490C4160,490,4000,490,3840,490C3680,490,3520,490,3360,490C3200,490,3040,490,2880,490C2720,490,2560,490,2400,490C2240,490,2080,490,1920,490C1760,490,1600,490,1440,490C1280,490,1120,490,960,490C800,490,640,490,480,490C320,490,160,490,80,490L0,490Z"/></svg>